<svg xmlns="http://www.w3.org/2000/svg" viewBox="0 0 400 400"><style type="text/css">  
	.st0{fill:#231F20;}
	.st1{fill:#EE3E42;}
	.st2{fill:#FFFFFF;}
	.st3{fill:#FBAF33;}
</style><path class="st0" d="m149.5 297.7c5.7-14.3 44.1-111.2 44.1-111.2l-25.3 9.7 41.5-63.1 105.3-34.9-28.2 34 35.3-12.3-172.7 177.8"/><polyline class="st1" points="213.2 137.8 291.6 111.8 263.1 146.1 294 135.5 168.3 265 204.1 174.8 183.8 182.6 213.2 137.8"/><path class="st2" d="m272.6 180.9l-64.3 65.9h59.8v50.6c-13.7 5.8-22.7 7.9-36.9 7.9-23.1 0-44-7.3-60.3-20l-38.3 38.2 21.3-54.8c-12.8-17.7-21.3-42.7-21.3-68.3 0-55.9 38-97 90.2-97 13 0 24.9 1.9 36.5 6.2l74-24.1-26.1 32.7 39.7-14.2-25.8 26.5-3.2 3.3h35.3v-118.4h-55.8v17.5c-22.3-8.6-46.9-12.9-74.1-12.9-111.3 0-191.4 77.6-191.4 186.2 0 105.5 77 178.8 187.7 178.8 52.2 0 99.1-14.2 139.7-42.2v-161.9h-86.7z"/><polygon class="st3" points="176.5 244.4 276.1 141.7 248.1 151.2 276.6 116.8 213.2 137.8 191.7 170.5 208.3 164.3"/><path class="st2" d="m355 21.6c0-0.9 0.2-1.8 0.5-2.5 0.3-0.8 0.8-1.5 1.4-2.1s1.3-1.1 2.1-1.4 1.6-0.5 2.5-0.5 1.8 0.2 2.6 0.5 1.5 0.8 2.1 1.4 1.1 1.3 1.4 2.1 0.5 1.6 0.5 2.5-0.2 1.8-0.5 2.5c-0.3 0.8-0.8 1.5-1.4 2.1s-1.3 1.1-2.1 1.4-1.7 0.5-2.6 0.5-1.7-0.2-2.5-0.5-1.5-0.8-2.1-1.4-1.1-1.3-1.4-2.1-0.5-1.6-0.5-2.5zm0.9 0c0 0.8 0.1 1.5 0.4 2.2s0.7 1.3 1.2 1.8 1.1 0.9 1.8 1.2 1.4 0.4 2.2 0.4 1.5-0.1 2.2-0.4 1.3-0.7 1.8-1.2 0.9-1.1 1.2-1.8 0.4-1.4 0.4-2.2-0.1-1.5-0.4-2.2-0.7-1.3-1.2-1.8-1.1-0.9-1.8-1.2-1.4-0.4-2.2-0.4-1.5 0.1-2.2 0.4-1.3 0.7-1.8 1.2-0.9 1.1-1.2 1.8c-0.3 0.6-0.4 1.4-0.4 2.2zm2.8 3.4v-0.8h0.8v-5.7h-0.8v-0.8h2.7c0.5 0 1 0.1 1.4 0.2s0.7 0.3 0.9 0.5 0.4 0.4 0.6 0.7c0.1 0.3 0.2 0.6 0.2 0.9 0 0.5-0.2 0.9-0.5 1.3s-0.8 0.6-1.4 0.7l1.8 2.3h1v0.7h-1.4l-2.3-3h-1.2v2.2h1v0.8h-2.8zm4.8-5c0-0.5-0.2-0.8-0.5-1s-0.8-0.3-1.4-0.3h-1.3v2.7h1.3c0.6 0 1-0.1 1.3-0.4 0.5-0.3 0.6-0.6 0.6-1z"/></svg>