<?xml version="1.0" encoding="utf-8"?>
<!-- Generator: Adobe Illustrator 22.1.0, SVG Export Plug-In . SVG Version: 6.00 Build 0)  -->
<svg version="1.1" id="Layer_1" xmlns="http://www.w3.org/2000/svg" xmlns:xlink="http://www.w3.org/1999/xlink" x="0px" y="0px"
	 viewBox="0 0 400 400" style="enable-background:new 0 0 400 400;" xml:space="preserve">
<style type="text/css">
	.st0{fill:#231F20;}
	.st1{fill:#EE3E42;}
	.st2{fill:#FBAF33;}
	.st3{fill:#FFFFFF;}
</style>
<path class="st0" d="M149.5,297.7c5.7-14.3,44.1-111.2,44.1-111.2l-25.3,9.7l41.5-63.1l105.3-34.9l-28.2,34l35.3-12.3L149.5,297.7"
	/>
<polyline class="st1" points="213.2,137.8 291.6,111.8 263.1,146.1 294,135.5 168.3,265 204.1,174.8 183.8,182.6 213.2,137.8 "/>
<path d="M272.6,180.9l-64.3,65.9h59.8v50.6c-13.7,5.8-22.7,7.9-36.9,7.9c-23.1,0-44-7.3-60.3-20l-38.3,38.2l21.3-54.8
	c-12.8-17.7-21.3-42.7-21.3-68.3c0-55.9,38-97,90.2-97c13,0,24.9,1.9,36.5,6.2l74-24.1l-26.1,32.7l39.7-14.2l-25.8,26.5l-3.2,3.3
	h35.3V15.4h-55.8v17.5C275.1,24.3,250.5,20,223.3,20C112,20,31.9,97.6,31.9,206.2c0,105.5,77,178.8,187.7,178.8
	c52.2,0,99.1-14.2,139.7-42.2V180.9H272.6L272.6,180.9z"/>
<polygon class="st2" points="176.5,244.4 276.1,141.7 248.1,151.2 276.6,116.8 213.2,137.8 191.7,170.5 208.3,164.3 "/>
<path class="st3" d="M355,21.6c0-0.9,0.2-1.8,0.5-2.5c0.3-0.8,0.8-1.5,1.4-2.1s1.3-1.1,2.1-1.4s1.6-0.5,2.5-0.5s1.8,0.2,2.6,0.5
	s1.5,0.8,2.1,1.4s1.1,1.3,1.4,2.1s0.5,1.6,0.5,2.5s-0.2,1.8-0.5,2.5c-0.3,0.8-0.8,1.5-1.4,2.1s-1.3,1.1-2.1,1.4s-1.7,0.5-2.6,0.5
	s-1.7-0.2-2.5-0.5s-1.5-0.8-2.1-1.4s-1.1-1.3-1.4-2.1S355,22.5,355,21.6z M355.9,21.6c0,0.8,0.1,1.5,0.4,2.2s0.7,1.3,1.2,1.8
	s1.1,0.9,1.8,1.2s1.4,0.4,2.2,0.4s1.5-0.1,2.2-0.4s1.3-0.7,1.8-1.2s0.9-1.1,1.2-1.8s0.4-1.4,0.4-2.2s-0.1-1.5-0.4-2.2
	s-0.7-1.3-1.2-1.8s-1.1-0.9-1.8-1.2s-1.4-0.4-2.2-0.4s-1.5,0.1-2.2,0.4s-1.3,0.7-1.8,1.2s-0.9,1.1-1.2,1.8
	C356,20,355.9,20.8,355.9,21.6z M358.7,25v-0.8h0.8v-5.7h-0.8v-0.8h2.7c0.5,0,1,0.1,1.4,0.2s0.7,0.3,0.9,0.5s0.4,0.4,0.6,0.7
	c0.1,0.3,0.2,0.6,0.2,0.9c0,0.5-0.2,0.9-0.5,1.3s-0.8,0.6-1.4,0.7l1.8,2.3h1V25H364l-2.3-3h-1.2v2.2h1V25L358.7,25L358.7,25z
	 M363.5,20c0-0.5-0.2-0.8-0.5-1s-0.8-0.3-1.4-0.3h-1.3v2.7h1.3c0.6,0,1-0.1,1.3-0.4C363.4,20.7,363.5,20.4,363.5,20z"/>
</svg>
